<?xml version="1.0" standalone="no"?>
<!DOCTYPE svg PUBLIC "-//W3C//DTD SVG 20010904//EN"
 "http://www.w3.org/TR/2001/REC-SVG-20010904/DTD/svg10.dtd">
<svg version="1.0" xmlns="http://www.w3.org/2000/svg"
 width="181.000000pt" height="166.000000pt" viewBox="0 0 181.000000 166.000000"
 preserveAspectRatio="xMidYMid meet">

<g transform="translate(0.000000,166.000000) scale(0.100000,-0.100000)"
fill="#000000" stroke="none">
<path d="M840 1255 l0 -375 -375 0 -375 0 0 -50 0 -50 375 0 375 0 0 -375 0
-375 45 0 45 0 0 375 0 375 375 0 375 0 0 50 0 50 -375 0 -375 0 0 375 0 375
-45 0 -45 0 0 -375z"/>
<path d="M1290 1430 l0 -100 -100 0 -100 0 0 -50 0 -50 100 0 100 0 0 -100 0
-100 45 0 45 0 0 100 0 100 100 0 100 0 0 50 0 50 -100 0 -100 0 0 100 0 100
-45 0 -45 0 0 -100z"/>
<path d="M190 1280 l0 -50 245 0 245 0 0 50 0 50 -245 0 -245 0 0 -50z"/>
<path d="M255 560 l-29 -30 74 -75 74 -75 -74 -75 -75 -75 33 -32 32 -33 75
75 75 74 75 -74 75 -75 32 33 33 32 -75 75 -74 75 74 75 75 75 -33 32 -32 33
-75 -75 -75 -74 -73 72 c-40 39 -75 72 -78 72 -3 0 -18 -14 -34 -30z"/>
<path d="M1090 480 l0 -50 245 0 245 0 0 50 0 50 -245 0 -245 0 0 -50z"/>
<path d="M1090 280 l0 -50 245 0 245 0 0 50 0 50 -245 0 -245 0 0 -50z"/>
</g>
</svg>
