<?xml version="1.0" standalone="no"?>
<!DOCTYPE svg PUBLIC "-//W3C//DTD SVG 20010904//EN"
 "http://www.w3.org/TR/2001/REC-SVG-20010904/DTD/svg10.dtd">
<svg version="1.0" xmlns="http://www.w3.org/2000/svg"
 width="180.000000pt" height="182.000000pt" viewBox="0 0 180.000000 182.000000"
 preserveAspectRatio="xMidYMid meet">

<g transform="translate(0.000000,182.000000) scale(0.100000,-0.100000)"
fill="#000000" stroke="none">
<path d="M500 1486 l-395 -222 -3 -77 -3 -77 796 0 796 0 -3 76 -3 76 -355
200 c-195 110 -373 210 -395 223 l-40 23 -395 -222z m629 -78 c119 -67 225
-127 236 -135 17 -11 -10 -13 -183 -13 l-201 0 5 30 c14 68 -44 128 -112 116
-48 -10 -76 -50 -72 -103 l3 -43 -205 0 -205 0 245 139 c135 77 252 137 259
135 8 -3 112 -59 230 -126z"/>
<path d="M300 760 l0 -250 -50 0 -50 0 0 -75 0 -75 695 0 695 0 0 75 0 75 -50
0 -50 0 0 250 0 250 -70 0 -70 0 0 -250 0 -250 -105 0 -105 0 0 250 0 250 -70
0 -70 0 0 -250 0 -250 -105 0 -105 0 0 250 0 250 -70 0 -70 0 0 -250 0 -250
-105 0 -105 0 0 250 0 250 -70 0 -70 0 0 -250z"/>
<path d="M100 185 l0 -75 795 0 795 0 0 75 0 75 -795 0 -795 0 0 -75z"/>
</g>
</svg>
