<?xml version="1.0" standalone="no"?>
<!DOCTYPE svg PUBLIC "-//W3C//DTD SVG 20010904//EN"
 "http://www.w3.org/TR/2001/REC-SVG-20010904/DTD/svg10.dtd">
<svg version="1.0" xmlns="http://www.w3.org/2000/svg"
 width="133.000000pt" height="177.000000pt" viewBox="0 0 133.000000 177.000000"
 preserveAspectRatio="xMidYMid meet">

<g transform="translate(0.000000,177.000000) scale(0.100000,-0.100000)"
fill="#000000" stroke="none">
<path d="M195 1658 c-50 -17 -96 -58 -116 -102 -18 -39 -19 -77 -19 -686 0
-609 1 -647 19 -686 22 -48 70 -87 126 -104 28 -8 165 -10 470 -8 l430 3 47
27 c34 21 53 41 72 80 l26 52 0 478 c0 397 -2 484 -14 506 -22 41 -417 430
-449 442 -38 13 -552 12 -592 -2z m465 -285 c0 -181 2 -201 20 -231 38 -61 79
-72 293 -72 l187 0 0 -404 c0 -269 -4 -414 -11 -435 -21 -61 -23 -61 -503 -61
l-435 0 -28 24 -28 24 0 652 0 652 28 24 c28 24 30 24 253 24 l224 0 0 -197z
m297 5 c106 -106 193 -196 193 -200 0 -4 -83 -8 -184 -8 -154 0 -187 3 -200
16 -13 13 -16 46 -16 200 0 101 3 184 7 184 4 0 94 -86 200 -192z"/>
<path d="M278 1459 c-25 -14 -24 -65 1 -79 11 -5 69 -10 130 -10 116 0 141 9
141 50 0 41 -25 50 -143 50 -62 0 -120 -5 -129 -11z"/>
<path d="M278 1259 c-25 -14 -24 -65 1 -79 11 -5 69 -10 130 -10 116 0 141 9
141 50 0 41 -25 50 -143 50 -62 0 -120 -5 -129 -11z"/>
<path d="M638 953 c-17 -4 -23 -18 -30 -67 -2 -13 -17 -24 -44 -33 -22 -7 -54
-27 -70 -44 -25 -26 -29 -38 -29 -85 0 -50 3 -59 32 -84 20 -18 61 -38 105
-50 132 -39 158 -51 158 -76 0 -20 -54 -44 -100 -44 -23 0 -70 8 -105 17 -71
19 -95 11 -95 -33 0 -30 31 -50 97 -65 53 -12 53 -12 53 -50 0 -37 18 -59 49
-59 20 0 41 33 41 65 0 30 3 33 37 40 83 15 135 114 97 184 -26 49 -68 74
-165 100 -94 25 -124 42 -116 66 11 27 57 37 145 30 91 -7 112 1 112 40 0 30
-17 43 -67 51 -39 6 -42 9 -45 42 -3 37 -30 62 -60 55z"/>
</g>
</svg>
