<?xml version="1.0" standalone="no"?>
<!DOCTYPE svg PUBLIC "-//W3C//DTD SVG 20010904//EN"
 "http://www.w3.org/TR/2001/REC-SVG-20010904/DTD/svg10.dtd">
<svg version="1.0" xmlns="http://www.w3.org/2000/svg"
 width="195.000000pt" height="181.000000pt" viewBox="0 0 195.000000 181.000000"
 preserveAspectRatio="xMidYMid meet">

<g transform="translate(0.000000,181.000000) scale(0.100000,-0.100000)"
fill="#000000" stroke="none">
<path d="M213 1604 c-63 -32 -107 -187 -107 -384 0 -143 22 -257 64 -340 34
-66 117 -78 161 -22 24 31 22 66 -11 182 -30 104 -30 256 0 360 34 119 36 152
8 183 -29 34 -73 42 -115 21z"/>
<path d="M1691 1604 c-13 -9 -29 -31 -37 -50 -12 -30 -11 -39 13 -111 24 -71
27 -92 27 -223 0 -130 -3 -153 -26 -221 -14 -42 -24 -87 -21 -101 13 -67 106
-97 155 -50 118 110 114 648 -5 748 -33 28 -73 31 -106 8z"/>
<path d="M505 1511 c-33 -14 -52 -42 -76 -111 -33 -95 -33 -257 0 -357 13 -39
34 -82 48 -94 33 -32 93 -32 127 0 36 34 40 67 15 136 -14 41 -21 84 -21 135
0 51 7 94 21 135 13 35 19 71 16 86 -12 53 -82 91 -130 70z"/>
<path d="M1414 1504 c-32 -15 -54 -50 -54 -83 0 -10 9 -44 20 -76 27 -77 26
-170 -1 -255 -24 -74 -21 -108 12 -139 48 -44 123 -31 153 27 60 117 60 367 0
484 -14 27 -60 58 -86 58 -7 0 -27 -7 -44 -16z"/>
<path d="M936 1406 c-137 -51 -175 -212 -75 -321 l39 -42 0 -472 c0 -518 0
-516 59 -541 37 -15 78 -6 109 22 l22 21 0 487 0 486 30 22 c78 58 94 194 33
269 -57 71 -140 97 -217 69z"/>
</g>
</svg>
