<?xml version="1.0" standalone="no"?>
<!DOCTYPE svg PUBLIC "-//W3C//DTD SVG 20010904//EN"
 "http://www.w3.org/TR/2001/REC-SVG-20010904/DTD/svg10.dtd">
<svg version="1.0" xmlns="http://www.w3.org/2000/svg"
 width="193.000000pt" height="174.000000pt" viewBox="0 0 193.000000 174.000000"
 preserveAspectRatio="xMidYMid meet">

<g transform="translate(0.000000,174.000000) scale(0.100000,-0.100000)"
fill="#000000" stroke="none">
<path d="M916 1659 c-18 -14 -26 -30 -26 -52 0 -29 -5 -35 -49 -55 -61 -28
-93 -75 -98 -146 -8 -97 38 -142 194 -192 95 -31 118 -49 88 -70 -25 -19 -92
-18 -146 2 -86 30 -139 12 -139 -48 0 -48 16 -65 85 -88 63 -21 65 -23 65 -55
0 -37 37 -75 72 -75 29 0 68 45 68 79 0 25 5 31 35 41 68 23 125 120 111 192
-15 82 -68 123 -213 167 -80 24 -95 37 -67 58 14 11 36 13 89 8 107 -10 118
-9 137 15 40 49 9 109 -62 125 -25 6 -30 12 -30 36 0 34 -39 79 -68 79 -11 0
-31 -9 -46 -21z"/>
<path d="M580 721 c-43 -13 -91 -41 -200 -115 l-105 -71 -88 -5 c-100 -7 -121
-20 -121 -75 0 -58 20 -70 132 -73 l97 -4 154 101 155 101 278 0 278 0 16 -25
c15 -23 15 -27 0 -50 -16 -25 -17 -25 -175 -25 -145 0 -161 -2 -185 -21 -36
-28 -36 -80 0 -108 25 -20 39 -21 254 -21 l228 0 133 81 c74 45 148 91 166
101 57 34 136 6 108 -38 -6 -8 -89 -66 -184 -127 l-175 -112 -623 -5 c-695 -6
-657 -1 -657 -75 0 -74 -39 -70 662 -70 l627 0 55 26 c30 14 130 74 223 134
137 88 172 115 192 150 66 112 0 257 -128 280 -70 13 -118 -2 -243 -79 l-119
-74 -10 42 c-16 63 -49 109 -97 136 -43 25 -45 25 -333 27 -159 1 -301 -2
-315 -6z"/>
</g>
</svg>
