<?xml version="1.0" standalone="no"?>
<!DOCTYPE svg PUBLIC "-//W3C//DTD SVG 20010904//EN"
 "http://www.w3.org/TR/2001/REC-SVG-20010904/DTD/svg10.dtd">
<svg version="1.0" xmlns="http://www.w3.org/2000/svg"
 width="175.000000pt" height="149.000000pt" viewBox="0 0 175.000000 149.000000"
 preserveAspectRatio="xMidYMid meet">

<g transform="translate(0.000000,149.000000) scale(0.100000,-0.100000)"
fill="#000000" stroke="none">
<path d="M144 1320 c-53 -21 -72 -105 -34 -153 40 -51 126 -43 155 14 45 86
-33 175 -121 139z"/>
<path d="M508 1269 c-25 -14 -24 -65 1 -79 13 -6 197 -10 530 -10 450 0 511 2
525 16 20 20 20 48 0 68 -14 14 -75 16 -527 16 -329 0 -518 -4 -529 -11z"/>
<path d="M144 820 c-53 -21 -72 -105 -34 -153 40 -51 126 -43 155 14 45 86
-33 175 -121 139z"/>
<path d="M508 769 c-25 -14 -24 -65 1 -79 13 -6 197 -10 530 -10 450 0 511 2
525 16 20 20 20 48 0 68 -14 14 -75 16 -527 16 -329 0 -518 -4 -529 -11z"/>
<path d="M144 320 c-53 -21 -72 -105 -34 -153 40 -51 126 -43 155 14 45 86
-33 175 -121 139z"/>
<path d="M508 269 c-25 -14 -24 -65 1 -79 13 -6 197 -10 530 -10 450 0 511 2
525 16 20 20 20 48 0 68 -14 14 -75 16 -527 16 -329 0 -518 -4 -529 -11z"/>
</g>
</svg>
