<?xml version="1.0" standalone="no"?>
<!DOCTYPE svg PUBLIC "-//W3C//DTD SVG 20010904//EN"
 "http://www.w3.org/TR/2001/REC-SVG-20010904/DTD/svg10.dtd">
<svg version="1.0" xmlns="http://www.w3.org/2000/svg"
 width="195.000000pt" height="174.000000pt" viewBox="0 0 195.000000 174.000000"
 preserveAspectRatio="xMidYMid meet">

<g transform="translate(0.000000,174.000000) scale(0.100000,-0.100000)"
fill="#000000" stroke="none">
<path d="M940 1653 c-63 -44 -837 -706 -849 -726 -18 -30 -8 -72 24 -93 30
-19 51 -13 107 31 23 19 46 35 50 35 4 0 8 -147 10 -327 l3 -328 25 -45 c33
-58 96 -105 160 -119 55 -12 902 -16 984 -5 74 11 146 59 181 124 l30 55 3
323 c2 177 6 322 9 322 3 0 24 -15 47 -33 54 -44 72 -50 105 -32 31 16 45 52
33 83 -8 24 -2 18 -427 378 -495 420 -451 388 -495 357z m345 -415 l240 -204
0 -383 0 -383 -28 -24 c-26 -22 -37 -24 -128 -24 l-99 0 0 248 c0 357 4 352
-293 352 -211 0 -243 -7 -277 -62 -19 -31 -20 -50 -20 -285 l0 -253 -101 0
c-98 0 -101 1 -130 29 l-29 29 0 379 1 378 275 233 276 232 36 -29 c21 -16
145 -121 277 -233z m-155 -793 l0 -225 -155 0 -155 0 0 225 0 225 155 0 155 0
0 -225z"/>
</g>
</svg>
