<?xml version="1.0" standalone="no"?>
<!DOCTYPE svg PUBLIC "-//W3C//DTD SVG 20010904//EN"
 "http://www.w3.org/TR/2001/REC-SVG-20010904/DTD/svg10.dtd">
<svg version="1.0" xmlns="http://www.w3.org/2000/svg"
 width="168.000000pt" height="151.000000pt" viewBox="0 0 168.000000 151.000000"
 preserveAspectRatio="xMidYMid meet">

<g transform="translate(0.000000,151.000000) scale(0.100000,-0.100000)"
fill="#000000" stroke="none">
<path d="M280 1431 c-94 -21 -168 -83 -200 -167 -19 -52 -20 -76 -20 -523 0
-524 0 -524 71 -604 21 -25 60 -55 86 -68 45 -22 60 -23 220 -24 194 0 207 4
207 70 0 64 -14 69 -205 75 l-171 5 -34 37 -34 38 0 470 0 470 34 38 34 37
171 5 c191 6 205 11 205 75 0 64 -16 70 -182 72 -81 1 -163 -2 -182 -6z"/>
<path d="M1090 1218 c-59 -31 -80 -73 -80 -160 l0 -66 -172 -4 c-159 -3 -176
-5 -209 -26 -58 -36 -69 -70 -69 -221 0 -150 13 -191 72 -226 29 -18 54 -20
206 -23 l172 -4 0 -65 c0 -102 38 -160 116 -177 59 -13 97 15 309 226 214 214
225 230 210 300 -9 42 -379 418 -441 448 -51 25 -60 25 -114 -2z m245 -308
l170 -170 -170 -170 c-93 -93 -173 -170 -176 -170 -4 0 -9 45 -11 100 -4 141
8 134 -243 138 l-205 3 0 99 0 99 205 3 c251 4 239 -3 243 138 2 55 7 100 11
100 3 0 83 -76 176 -170z"/>
</g>
</svg>
