<?xml version="1.0" standalone="no"?>
<!DOCTYPE svg PUBLIC "-//W3C//DTD SVG 20010904//EN"
 "http://www.w3.org/TR/2001/REC-SVG-20010904/DTD/svg10.dtd">
<svg version="1.0" xmlns="http://www.w3.org/2000/svg"
 width="189.000000pt" height="150.000000pt" viewBox="0 0 189.000000 150.000000"
 preserveAspectRatio="xMidYMid meet">

<g transform="translate(0.000000,150.000000) scale(0.100000,-0.100000)"
fill="#000000" stroke="none">
<path d="M175 1428 c-50 -18 -96 -58 -116 -102 -17 -38 -19 -75 -19 -586 0
-511 2 -548 19 -586 22 -48 70 -87 126 -104 29 -8 241 -10 770 -8 l730 3 47
27 c34 21 53 41 72 80 l26 52 0 536 0 536 -26 52 c-19 39 -38 59 -72 80 l-47
27 -740 2 c-501 1 -750 -2 -770 -9z m1514 -103 c16 -8 34 -28 40 -46 15 -45
15 -1033 0 -1078 -22 -63 6 -61 -803 -61 l-735 0 -28 24 -28 24 0 552 0 552
28 24 28 24 735 0 c627 0 739 -2 763 -15z"/>
<path d="M575 1128 c-83 -29 -135 -102 -135 -188 0 -108 92 -200 200 -200 45
0 125 47 156 92 25 35 29 51 29 108 0 57 -4 73 -29 108 -32 47 -112 92 -160
91 -17 0 -44 -5 -61 -11z m115 -103 c61 -31 61 -139 0 -170 -44 -23 -94 -19
-127 9 -24 21 -28 32 -28 76 0 44 4 55 28 76 33 28 83 32 127 9z"/>
<path d="M1108 1029 c-25 -14 -24 -65 1 -79 12 -6 104 -10 230 -10 223 0 241
4 241 50 0 46 -18 50 -243 50 -125 0 -219 -5 -229 -11z"/>
<path d="M1108 829 c-25 -14 -24 -65 1 -79 12 -6 104 -10 230 -10 223 0 241 4
241 50 0 46 -18 50 -243 50 -125 0 -219 -5 -229 -11z"/>
<path d="M475 631 c-108 -28 -185 -126 -185 -234 0 -35 19 -57 49 -57 19 0 41
32 41 58 0 40 41 103 80 123 29 16 58 19 173 19 152 0 175 -6 220 -60 15 -17
29 -49 33 -75 7 -49 30 -71 64 -60 27 9 34 45 20 106 -16 67 -63 127 -125 158
-46 24 -61 26 -195 28 -80 1 -158 -2 -175 -6z"/>
<path d="M1108 629 c-25 -14 -24 -65 1 -79 12 -6 104 -10 230 -10 223 0 241 4
241 50 0 46 -18 50 -243 50 -125 0 -219 -5 -229 -11z"/>
</g>
</svg>
