<?xml version="1.0" standalone="no"?>
<!DOCTYPE svg PUBLIC "-//W3C//DTD SVG 20010904//EN"
 "http://www.w3.org/TR/2001/REC-SVG-20010904/DTD/svg10.dtd">
<svg version="1.0" xmlns="http://www.w3.org/2000/svg"
 width="230.000000pt" height="206.000000pt" viewBox="0 0 230.000000 206.000000"
 preserveAspectRatio="xMidYMid meet">

<g transform="translate(0.000000,206.000000) scale(0.100000,-0.100000)"
fill="#000000" stroke="none">
<path d="M493 1771 c-50 -23 -74 -57 -80 -114 -13 -116 94 -196 200 -149 55
24 79 58 84 120 6 65 -19 111 -77 140 -54 27 -73 27 -127 3z"/>
<path d="M1095 1775 c-105 -38 -141 -172 -73 -268 78 -110 262 -69 296 65 34
135 -93 251 -223 203z"/>
<path d="M1712 1783 c-35 -7 -90 -68 -98 -108 -20 -109 71 -204 173 -179 156
38 145 270 -13 288 -21 2 -49 2 -62 -1z"/>
<path d="M419 1377 c-147 -42 -245 -160 -256 -310 -10 -130 45 -245 149 -312
l47 -30 0 -87 c1 -77 4 -90 25 -115 l24 -28 147 0 147 0 24 28 c21 25 24 38
24 113 0 96 -16 124 -70 124 -43 0 -70 -31 -70 -80 l0 -40 -55 0 -55 0 0 300
0 300 74 0 c40 0 88 -5 106 -11 28 -10 34 -9 43 6 5 10 25 35 44 56 l35 39
-57 26 c-49 23 -75 27 -169 30 -71 3 -127 -1 -157 -9z m-59 -339 l-1 -133 -19
23 c-27 32 -43 96 -35 141 6 35 38 101 50 101 3 0 5 -60 5 -132z"/>
<path d="M1633 1380 c-22 -5 -60 -18 -83 -30 l-41 -21 34 -38 c19 -21 39 -46
44 -56 9 -15 15 -16 43 -6 18 6 66 11 106 11 l74 0 0 -300 0 -300 -55 0 -55 0
0 40 c0 49 -27 80 -70 80 -54 0 -70 -28 -70 -124 0 -75 3 -88 24 -113 l24 -28
147 0 147 0 24 28 c21 25 24 38 25 115 l0 87 47 30 c104 67 159 182 149 312
-10 128 -78 227 -193 284 -60 30 -75 33 -172 35 -59 2 -126 -1 -149 -6z m369
-292 c14 -57 0 -130 -33 -163 -19 -19 -19 -18 -19 115 0 133 0 134 19 115 11
-11 26 -41 33 -67z"/>
<path d="M1019 1327 c-146 -42 -245 -160 -256 -310 -10 -130 45 -245 149 -312
l47 -30 0 -112 c1 -103 3 -114 25 -140 l24 -28 147 0 147 0 24 28 c22 26 24
37 25 140 l0 112 47 30 c104 67 159 182 149 312 -10 128 -78 227 -194 285 -60
29 -74 32 -177 35 -70 2 -128 -2 -157 -10z m191 -462 l0 -325 -55 0 -55 0 0
325 0 325 55 0 55 0 0 -325z m-250 123 l-1 -133 -19 23 c-27 32 -43 96 -35
141 6 35 38 101 50 101 3 0 5 -60 5 -132z m442 50 c14 -57 0 -130 -33 -163
-19 -19 -19 -18 -19 115 0 133 0 134 19 115 11 -11 26 -41 33 -67z"/>
</g>
</svg>
