<?xml version="1.0" standalone="no"?>
<!DOCTYPE svg PUBLIC "-//W3C//DTD SVG 20010904//EN"
 "http://www.w3.org/TR/2001/REC-SVG-20010904/DTD/svg10.dtd">
<svg version="1.0" xmlns="http://www.w3.org/2000/svg"
 width="207.000000pt" height="182.000000pt" viewBox="0 0 207.000000 182.000000"
 preserveAspectRatio="xMidYMid meet">

<g transform="translate(0.000000,182.000000) scale(0.100000,-0.100000)"
fill="#000000" stroke="none">
<path d="M582 1584 c-34 -32 -330 -543 -339 -585 -6 -30 19 -84 45 -98 10 -5
133 -58 272 -116 140 -58 256 -107 257 -109 1 -1 -26 -78 -61 -171 l-64 -170
-154 0 -153 0 -3 55 c-3 82 -9 96 -40 109 -37 16 -79 0 -92 -34 -13 -34 -13
-376 0 -410 13 -34 55 -50 92 -34 31 13 37 27 40 109 l3 55 191 3 c175 2 193
4 209 22 9 10 51 106 92 212 41 106 76 194 78 196 1 2 63 -22 136 -53 80 -34
144 -55 159 -53 32 5 656 421 670 447 18 34 12 88 -12 115 -16 17 -205 101
-628 277 -333 138 -619 253 -636 256 -25 4 -38 -1 -62 -23z m631 -364 c284
-118 517 -217 517 -220 0 -3 -111 -78 -246 -168 -197 -131 -251 -162 -270
-158 -32 8 -787 325 -796 334 -4 4 42 95 103 202 145 255 135 241 158 232 10
-4 250 -104 534 -222z"/>
<path d="M1688 667 c-109 -73 -198 -134 -198 -137 0 -6 364 -170 377 -170 21
0 45 42 103 182 75 181 75 193 0 230 -30 15 -62 27 -70 27 -8 0 -104 -60 -212
-132z"/>
</g>
</svg>
