<?xml version="1.0" standalone="no"?>
<!DOCTYPE svg PUBLIC "-//W3C//DTD SVG 20010904//EN"
 "http://www.w3.org/TR/2001/REC-SVG-20010904/DTD/svg10.dtd">
<svg version="1.0" xmlns="http://www.w3.org/2000/svg"
 width="231.000000pt" height="179.000000pt" viewBox="0 0 231.000000 179.000000"
 preserveAspectRatio="xMidYMid meet">

<g transform="translate(0.000000,179.000000) scale(0.100000,-0.100000)"
fill="#000000" stroke="none">
<path d="M1866 1664 c-28 -27 -18 -54 46 -120 l61 -64 -775 0 c-553 0 -785 -3
-809 -11 -53 -18 -99 -58 -120 -103 -17 -38 -19 -71 -19 -401 l0 -359 45 44
45 44 0 192 0 191 59 12 c117 23 208 114 233 232 l12 59 665 0 664 0 -61 -64
c-34 -35 -62 -73 -62 -84 0 -23 25 -52 43 -52 18 0 247 233 247 250 0 17 -229
250 -247 250 -6 0 -19 -7 -27 -16z m-1321 -316 c-10 -46 -28 -78 -62 -110 -31
-30 -91 -58 -124 -58 -20 0 -21 4 -17 76 3 69 6 79 31 100 24 21 38 24 103 24
l76 0 -7 -32z"/>
<path d="M1053 1162 c-128 -46 -203 -150 -203 -281 0 -118 61 -216 168 -268
47 -23 70 -28 127 -27 86 0 146 25 205 84 61 61 85 119 85 210 0 91 -24 149
-85 210 -79 79 -197 108 -297 72z m172 -101 c68 -30 125 -113 125 -181 0 -37
-24 -94 -53 -127 -90 -102 -244 -95 -322 16 -26 37 -30 51 -30 111 0 60 4 74
30 111 57 81 161 111 250 70z"/>
<path d="M1993 1108 l-43 -44 0 -191 0 -191 -42 -7 c-140 -23 -258 -145 -258
-267 l0 -28 -666 0 -666 0 30 37 c17 21 44 51 61 67 17 17 31 37 31 46 0 20
-31 50 -50 50 -7 0 -64 -50 -127 -112 -87 -86 -113 -118 -113 -138 0 -20 26
-52 113 -138 63 -62 121 -112 129 -112 18 0 48 31 48 49 0 7 -27 43 -61 79
l-61 67 789 5 788 5 47 27 c35 21 53 41 72 81 l26 53 -2 352 -3 353 -42 -43z
m-43 -582 c0 -113 -33 -146 -145 -146 -71 0 -73 2 -54 61 26 75 104 139 172
139 26 0 27 -2 27 -54z"/>
</g>
</svg>
