<?xml version="1.0" standalone="no"?>
<!DOCTYPE svg PUBLIC "-//W3C//DTD SVG 20010904//EN"
 "http://www.w3.org/TR/2001/REC-SVG-20010904/DTD/svg10.dtd">
<svg version="1.0" xmlns="http://www.w3.org/2000/svg"
 width="140.000000pt" height="179.000000pt" viewBox="0 0 140.000000 179.000000"
 preserveAspectRatio="xMidYMid meet">

<g transform="translate(0.000000,179.000000) scale(0.100000,-0.100000)"
fill="#000000" stroke="none">
<path d="M102 1658 c-17 -17 -17 -1559 0 -1576 23 -23 49 -11 132 63 46 41 90
75 98 75 7 0 47 -34 88 -75 41 -41 81 -75 88 -75 8 0 49 34 91 75 43 41 82 75
87 75 5 0 43 -34 84 -75 41 -41 81 -75 88 -75 8 0 51 36 96 80 l82 80 93 -80
c50 -44 98 -80 106 -80 7 0 21 7 29 16 14 14 16 99 16 784 0 685 -2 770 -16
784 -8 9 -22 16 -29 16 -8 0 -56 -36 -106 -80 l-93 -80 -82 80 c-45 44 -88 80
-96 80 -7 0 -47 -34 -88 -75 -41 -41 -79 -75 -84 -75 -5 0 -44 34 -87 75 -42
41 -83 75 -91 75 -7 0 -47 -34 -88 -75 -41 -41 -81 -75 -88 -75 -8 0 -52 34
-98 75 -83 74 -109 86 -132 63z m488 -183 c43 -44 83 -75 95 -75 11 0 52 32
97 77 l78 78 78 -78 c44 -44 86 -77 97 -77 11 0 48 25 82 55 33 30 64 55 67
55 3 0 6 -288 6 -640 0 -352 -3 -640 -6 -640 -3 0 -34 25 -67 55 -34 30 -71
55 -82 55 -11 0 -53 -33 -97 -77 l-78 -78 -78 78 c-44 43 -86 77 -97 77 -11 0
-53 -34 -97 -77 l-78 -78 -78 78 c-44 44 -86 77 -97 77 -11 0 -49 -25 -85 -57
l-65 -56 -3 321 c-1 177 -1 467 0 644 l3 321 65 -56 c36 -32 74 -57 85 -57 12
0 51 31 95 75 41 41 77 75 80 75 3 0 39 -34 80 -75z"/>
<path d="M358 1209 c-25 -14 -24 -65 1 -79 12 -6 135 -10 330 -10 268 0 312 2
325 16 20 20 20 48 0 68 -13 14 -57 16 -327 16 -193 0 -319 -4 -329 -11z"/>
<path d="M358 909 c-25 -14 -24 -65 1 -79 12 -6 135 -10 330 -10 268 0 312 2
325 16 20 20 20 48 0 68 -13 14 -57 16 -327 16 -193 0 -319 -4 -329 -11z"/>
<path d="M358 609 c-25 -14 -24 -65 1 -79 12 -6 135 -10 330 -10 268 0 312 2
325 16 20 20 20 48 0 68 -13 14 -57 16 -327 16 -193 0 -319 -4 -329 -11z"/>
</g>
</svg>
