<?xml version="1.0" standalone="no"?>
<!DOCTYPE svg PUBLIC "-//W3C//DTD SVG 20010904//EN"
 "http://www.w3.org/TR/2001/REC-SVG-20010904/DTD/svg10.dtd">
<svg version="1.0" xmlns="http://www.w3.org/2000/svg"
 width="217.000000pt" height="178.000000pt" viewBox="0 0 217.000000 178.000000"
 preserveAspectRatio="xMidYMid meet">

<g transform="translate(0.000000,178.000000) scale(0.100000,-0.100000)"
fill="#000000" stroke="none">
<path d="M480 1553 c-17 -85 -19 -91 -40 -98 -10 -3 -36 -18 -57 -32 l-38 -26
-68 18 c-37 10 -70 15 -73 12 -4 -3 -28 -43 -54 -88 l-48 -82 52 -47 51 -47
-1 -74 -1 -73 -50 -46 -51 -47 48 -82 c26 -45 50 -85 54 -88 3 -3 36 2 73 12
l68 18 38 -26 c21 -14 47 -29 57 -32 21 -7 23 -13 40 -97 l11 -58 108 0 108 0
12 69 12 69 61 36 c34 20 66 36 73 36 6 0 37 -9 68 -19 l56 -20 52 91 52 91
-51 49 -52 49 0 69 0 69 52 49 51 49 -52 91 -52 91 -56 -20 c-31 -10 -62 -19
-68 -19 -7 0 -39 16 -73 36 l-61 36 -12 69 -12 69 -108 0 -108 0 -11 -57z
m159 -77 c6 -25 11 -54 11 -65 0 -13 11 -23 35 -31 19 -6 63 -30 97 -53 l61
-41 47 17 c59 21 57 21 71 -4 9 -18 6 -26 -27 -60 l-37 -38 -1 -111 -1 -111
38 -36 c42 -42 42 -42 24 -67 -13 -17 -15 -17 -64 0 l-50 18 -61 -41 c-34 -23
-78 -47 -97 -53 -24 -8 -35 -18 -35 -31 0 -11 -5 -40 -11 -65 -11 -42 -14 -45
-42 -42 -28 3 -32 8 -39 43 -16 81 -17 82 -60 100 -24 9 -64 33 -91 52 l-49
36 -55 -17 c-30 -10 -56 -16 -58 -14 -1 2 -7 13 -14 25 -9 19 -6 25 35 60 l45
38 -11 53 c-9 38 -9 66 0 104 l11 53 -47 40 c-46 40 -46 40 -28 63 19 22 20
22 70 5 l52 -16 49 36 c26 19 67 43 90 52 44 17 47 23 59 90 9 53 11 55 43 55
25 0 30 -5 40 -44z"/>
<path d="M522 1243 c-79 -38 -115 -147 -77 -227 60 -126 244 -127 304 -3 27
55 27 99 0 154 -39 81 -145 117 -227 76z m132 -103 c39 -38 16 -110 -40 -124
-33 -9 -82 19 -90 49 -20 82 70 134 130 75z"/>
<path d="M1305 994 c-33 -20 -70 -42 -82 -50 l-21 -13 21 -66 c17 -53 19 -69
9 -83 -7 -9 -22 -36 -34 -59 -23 -46 -23 -46 -110 -63 l-58 -11 0 -109 0 -109
58 -11 c31 -6 64 -13 72 -16 8 -2 30 -33 49 -68 l34 -64 -21 -61 -21 -61 37
-24 c20 -12 61 -36 89 -52 l52 -29 50 49 50 49 71 1 72 1 44 -48 c25 -26 49
-47 54 -47 18 0 170 94 170 106 0 6 -9 36 -20 68 l-19 56 29 44 c17 24 30 49
30 55 0 15 32 28 103 41 l57 11 0 109 0 109 -57 11 c-90 18 -92 19 -114 63
-12 23 -28 49 -35 58 -12 13 -11 24 6 74 11 32 20 63 20 69 0 12 -152 106
-170 106 -5 0 -29 -21 -54 -47 l-44 -48 -72 1 c-71 1 -72 1 -119 48 -25 25
-51 46 -56 46 -6 -1 -37 -17 -70 -36z m97 -121 l37 -36 112 -1 111 -1 30 38
c32 40 45 44 71 25 16 -12 16 -16 0 -66 -17 -51 -17 -52 6 -80 12 -15 36 -57
54 -94 22 -47 38 -68 50 -68 10 0 38 -5 63 -11 39 -10 44 -15 44 -39 0 -24 -5
-29 -44 -39 -25 -6 -53 -11 -63 -11 -12 0 -28 -21 -50 -68 -18 -37 -42 -79
-54 -94 -23 -28 -23 -29 -6 -80 16 -50 16 -54 0 -66 -26 -19 -39 -15 -71 25
l-30 38 -112 -1 -112 -2 -38 -37 c-33 -32 -41 -35 -59 -26 -25 14 -25 15 -5
74 l16 47 -31 39 c-17 22 -42 64 -56 94 -23 53 -25 55 -71 62 -67 10 -74 14
-74 45 0 31 7 35 74 45 46 7 48 9 71 62 14 30 39 72 56 94 l31 39 -18 52 c-16
49 -16 52 2 65 24 18 23 18 66 -24z"/>
<path d="M1480 699 c-57 -23 -100 -92 -100 -161 0 -50 32 -111 72 -141 38 -28
119 -34 168 -12 124 56 129 243 8 306 -40 20 -107 24 -148 8z m124 -109 c39
-38 16 -110 -40 -124 -33 -9 -82 19 -90 49 -20 82 70 134 130 75z"/>
</g>
</svg>
