<?xml version="1.0" standalone="no"?>
<!DOCTYPE svg PUBLIC "-//W3C//DTD SVG 20010904//EN"
 "http://www.w3.org/TR/2001/REC-SVG-20010904/DTD/svg10.dtd">
<svg version="1.0" xmlns="http://www.w3.org/2000/svg"
 width="230.000000pt" height="210.000000pt" viewBox="0 0 230.000000 210.000000"
 preserveAspectRatio="xMidYMid meet">

<g transform="translate(0.000000,210.000000) scale(0.100000,-0.100000)"
fill="#000000" stroke="none">
<path d="M745 1807 c-203 -53 -333 -252 -296 -453 46 -253 295 -393 536 -303
74 28 167 114 208 193 31 58 32 66 32 176 0 110 -1 118 -32 176 -42 81 -134
165 -210 194 -72 27 -172 34 -238 17z m200 -161 c192 -89 192 -363 0 -452 -91
-43 -195 -28 -270 38 -119 105 -119 271 0 376 52 46 90 60 165 61 38 1 70 -6
105 -23z"/>
<path d="M1525 1176 c-13 -10 -20 -30 -23 -74 -4 -57 -7 -63 -38 -82 l-35 -20
-49 28 c-58 32 -67 29 -122 -44 -41 -53 -72 -131 -63 -156 4 -9 26 -27 51 -39
41 -23 44 -26 44 -66 0 -39 -3 -44 -45 -68 -24 -15 -47 -35 -50 -46 -14 -43
93 -219 133 -219 8 0 34 11 58 25 l43 25 34 -20 c32 -19 35 -25 39 -80 2 -33
10 -66 16 -72 18 -18 191 -22 222 -6 22 12 25 21 28 73 3 58 4 61 42 82 l38
23 44 -25 c24 -14 51 -25 60 -25 35 0 128 147 128 203 0 27 -19 46 -67 71 -29
14 -33 22 -33 55 0 35 4 41 50 69 59 37 63 56 25 135 -33 71 -81 127 -108 127
-12 0 -40 -11 -61 -25 l-39 -24 -39 22 c-37 21 -38 23 -38 79 0 78 -15 88
-135 88 -61 0 -97 -4 -110 -14z m202 -324 c61 -43 81 -143 44 -212 -20 -38
-89 -80 -130 -80 -37 1 -106 34 -125 61 -58 83 -29 206 58 245 42 19 116 12
153 -14z"/>
<path d="M603 859 c-208 -35 -380 -188 -436 -389 -25 -87 -31 -157 -17 -191
25 -60 11 -59 670 -59 591 0 601 0 590 19 -5 11 -10 28 -10 38 0 17 -7 19 -64
15 -63 -4 -65 -4 -109 37 l-44 41 -448 0 -447 0 6 32 c19 94 94 199 184 257
88 55 136 63 384 58 123 -2 232 -7 243 -10 11 -4 26 -3 33 2 11 6 8 14 -12 34
-14 14 -30 46 -37 70 -9 38 -15 46 -41 51 -45 9 -384 5 -445 -5z"/>
</g>
</svg>
